<?xml version="1.0" standalone="no"?><!DOCTYPE svg PUBLIC "-//W3C//DTD SVG 1.1//EN" "http://www.w3.org/Graphics/SVG/1.1/DTD/svg11.dtd"><svg t="1663430308363" class="icon" viewBox="0 0 1024 1024" version="1.1" xmlns="http://www.w3.org/2000/svg" p-id="13742" xmlns:xlink="http://www.w3.org/1999/xlink" width="200" height="200"><path d="M64.403 192.533h894.93v639.8H64.403z" fill="#3A5CAC" p-id="13743"></path><path d="M64.403 192.533l447.465 369.89 447.465-369.89z" fill="#517EBF" p-id="13744"></path><path d="M597.474 437.576c-9.438-9.06-22.585-13.59-39.326-13.59-4.607 0-9.326 0.773-14.158 2.32-4.832 1.547-9.214 3.757-13.483 6.408-4.157 2.652-7.753 5.193-10.674 7.513-3.034 2.32-5.843 4.862-8.539 7.513-2.697-2.652-5.506-5.083-8.539-7.513-3.034-2.32-6.517-4.862-10.674-7.513s-8.652-4.862-13.483-6.408-9.551-2.32-14.158-2.32c-16.742 0-29.776 4.53-39.327 13.59-9.214 9.06-13.933 21.767-13.933 37.898 0 4.862 0.899 9.944 2.697 15.137s3.708 9.613 5.955 13.369a98.772 98.772 0 0 0 7.641 10.718 114.674 114.674 0 0 0 6.18 7.182c1.236 1.326 2.36 2.21 3.034 2.873l69.776 66.294c1.348 1.326 3.034 1.989 4.944 1.989s3.596-0.663 4.944-1.989l69.664-66.073c17.079-16.795 25.618-33.258 25.618-49.5-0.002-16.132-4.721-28.838-14.159-37.898z" fill="#EF6570" p-id="13745"></path><path d="M597.917 447.262c-9.438-9.06-22.585-13.59-39.327-13.59-4.607 0-9.326 0.773-14.158 2.32-4.832 1.547-9.214 3.757-13.483 6.408-4.157 2.652-7.753 5.193-10.674 7.513-3.034 2.32-5.843 4.862-8.539 7.513-2.697-2.652-5.506-5.083-8.539-7.513-3.034-2.32-6.517-4.862-10.674-7.513-4.157-2.652-8.652-4.862-13.483-6.408-4.832-1.547-9.551-2.32-14.158-2.32-16.742 0-29.776 4.53-39.327 13.59-9.214 9.06-13.933 21.767-13.933 37.898 0 4.862 0.899 9.944 2.697 15.137s3.708 9.613 5.955 13.369a98.772 98.772 0 0 0 7.641 10.718 114.674 114.674 0 0 0 6.18 7.182c1.236 1.326 2.36 2.21 3.034 2.873l69.776 66.294c1.348 1.326 3.034 1.989 4.944 1.989s3.596-0.663 4.944-1.989l69.664-66.073c17.079-16.795 25.618-33.258 25.618-49.5-0.001-16.132-4.72-28.838-14.158-37.898z" fill="#F3797D" p-id="13746"></path><path d="M343.081 700.56H137.674a9.472 9.472 0 0 1-9.472-9.472v-1.128a9.472 9.472 0 0 1 9.472-9.472h205.407a9.472 9.472 0 0 1 9.472 9.472v1.128c-0.001 5.232-4.241 9.472-9.472 9.472zM180.007 763.442h-41.62c-5.196 0-9.448-4.252-9.448-9.448v-1.125c0-5.196 4.252-9.448 9.448-9.448h41.62c5.196 0 9.448 4.252 9.448 9.448v1.125c0 5.196-4.252 9.448-9.448 9.448zM261.188 763.442h-41.62c-5.196 0-9.448-4.252-9.448-9.448v-1.125c0-5.196 4.252-9.448 9.448-9.448h41.62c5.196 0 9.448 4.252 9.448 9.448v1.125c0 5.196-4.252 9.448-9.448 9.448z" fill="#FFFFFF" p-id="13747"></path></svg>